<svg width="40" height="36" viewBox="0 0 40 36" fill="none" xmlns="http://www.w3.org/2000/svg">
<rect y="0.787109" width="40" height="35" rx="4" fill="#2D4F2B"/>
<path d="M29.6 25.4871H27.2V14.9871L20 19.4871L12.8 14.9871V25.4871H10.4V11.0871H11.84L20 16.1871L28.16 11.0871H29.6M29.6 8.68713H10.4C9.068 8.68713 8 9.75513 8 11.0871V25.4871C8 26.1237 8.25286 26.7341 8.70294 27.1842C9.15303 27.6343 9.76348 27.8871 10.4 27.8871H29.6C30.2365 27.8871 30.847 27.6343 31.2971 27.1842C31.7471 26.7341 32 26.1237 32 25.4871V11.0871C32 10.4506 31.7471 9.84016 31.2971 9.39008C30.847 8.93999 30.2365 8.68713 29.6 8.68713Z" fill="#FFD47B"/>
</svg>
