<svg width="40" height="36" viewBox="0 0 40 36" fill="none" xmlns="http://www.w3.org/2000/svg">
<rect y="0.787109" width="40" height="35" rx="4" fill="#2D4F2B"/>
<g clip-path="url(#clip0_69_92)">
<path d="M28.445 26.7404H24.8953V21.1701C24.8953 19.8419 24.8675 18.1349 23.039 18.1349C21.188 18.1349 20.906 19.5756 20.906 21.0719V26.7396H17.3517V15.2864H20.7657V16.8486H20.8115C21.2885 15.9464 22.4487 14.9976 24.1797 14.9976C27.7805 14.9976 28.4487 17.3684 28.4487 20.4509V26.7396L28.445 26.7404ZM13.3362 13.7211C13.065 13.7212 12.7963 13.6678 12.5457 13.5639C12.2951 13.46 12.0674 13.3077 11.8758 13.1157C11.6841 12.9237 11.5322 12.6958 11.4288 12.4449C11.3253 12.1941 11.2724 11.9254 11.273 11.6541C11.2734 11.2458 11.395 10.8467 11.6222 10.5075C11.8494 10.1682 12.1721 9.90388 12.5495 9.74799C12.9269 9.5921 13.3421 9.55162 13.7425 9.63167C14.1429 9.71171 14.5106 9.90869 14.7991 10.1977C15.0875 10.4867 15.2839 10.8547 15.3632 11.2553C15.4425 11.6559 15.4013 12.0709 15.2447 12.4481C15.0881 12.8252 14.8232 13.1474 14.4835 13.374C14.1438 13.6006 13.7446 13.7214 13.3362 13.7211ZM15.1168 26.7404H11.555V15.2871H15.1168V26.7404ZM30.227 6.28711H9.77C8.79275 6.28711 8 7.06036 8 8.01736V28.5576C8 29.5146 8.79275 30.2879 9.77 30.2879H30.2233C31.199 30.2879 32 29.5146 32 28.5576V8.01736C32 7.06036 31.199 6.28711 30.2233 6.28711H30.227Z" fill="#FFD47B"/>
</g>
<defs>
<clipPath id="clip0_69_92">
<rect width="24" height="24" fill="white" transform="translate(8 6.28711)"/>
</clipPath>
</defs>
</svg>
