<svg width="40" height="36" viewBox="0 0 40 36" fill="none" xmlns="http://www.w3.org/2000/svg">
<rect y="0.787109" width="40" height="35" rx="4" fill="#2D4F2B"/>
<path d="M20 18.2871C19.2767 18.2871 18.583 18.0122 18.0715 17.523C17.5601 17.0338 17.2727 16.3702 17.2727 15.6784C17.2727 14.9865 17.5601 14.323 18.0715 13.8337C18.583 13.3445 19.2767 13.0697 20 13.0697C20.7233 13.0697 21.417 13.3445 21.9285 13.8337C22.4399 14.323 22.7273 14.9865 22.7273 15.6784C22.7273 16.0209 22.6567 16.3602 22.5197 16.6767C22.3826 16.9932 22.1817 17.2808 21.9285 17.523C21.6752 17.7652 21.3746 17.9574 21.0437 18.0885C20.7128 18.2196 20.3582 18.2871 20 18.2871ZM20 8.37402C17.9747 8.37402 16.0324 9.14359 14.6003 10.5134C13.1682 11.8832 12.3636 13.7411 12.3636 15.6784C12.3636 21.1566 20 29.2436 20 29.2436C20 29.2436 27.6364 21.1566 27.6364 15.6784C27.6364 13.7411 26.8318 11.8832 25.3997 10.5134C23.9676 9.14359 22.0253 8.37402 20 8.37402Z" fill="#FFD47B"/>
</svg>
