<svg width="1200" height="139" viewBox="0 0 1200 139" fill="none" xmlns="http://www.w3.org/2000/svg">
<g opacity="0.6">
<path d="M360.877 70.8708C356.925 70.8708 353.719 68.0728 353.719 64.6199C353.719 61.1669 356.925 58.369 360.877 58.369C364.829 58.369 368.031 61.1669 368.031 64.6199C368.031 68.0728 364.829 70.8708 360.877 70.8708ZM360.877 51.7747C352.758 51.7747 346.179 57.5296 346.179 64.6199C346.179 71.7134 352.758 77.4651 360.877 77.4651C368.996 77.4651 375.575 71.7134 375.575 64.6199C375.575 57.5296 368.996 51.7747 360.877 51.7747Z" fill="#21642D"/>
<path d="M603.675 67.7072C599.723 67.7072 596.521 64.9029 596.521 61.45C596.521 57.997 599.723 55.199 603.675 55.199C607.628 55.199 610.83 57.997 610.83 61.45C610.83 64.9029 607.628 67.7072 603.675 67.7072ZM603.675 48.6111C595.56 48.6111 588.977 54.3596 588.977 61.45C588.977 68.5466 595.56 74.2952 603.675 74.2952C611.794 74.2952 618.377 68.5466 618.377 61.45C618.377 54.3596 611.794 48.6111 603.675 48.6111Z" fill="#21642D"/>
<path d="M804.057 93.5122C800.105 93.5122 796.903 90.711 796.903 87.2581C796.903 83.8083 800.105 81.0071 804.057 81.0071C808.009 81.0071 811.215 83.8083 811.215 87.2581C811.215 90.711 808.009 93.5122 804.057 93.5122ZM804.057 74.416C795.942 74.416 789.363 80.1646 789.363 87.2581C789.363 94.3516 795.942 100.1 804.057 100.1C812.176 100.1 818.759 94.3516 818.759 87.2581C818.759 80.1646 812.176 74.416 804.057 74.416Z" fill="#21642D"/>
<mask id="mask0_113_506" style="mask-type:luminance" maskUnits="userSpaceOnUse" x="979" y="32" width="30" height="41">
<path d="M979.278 32.0872H1008.5V72.68H979.278V32.0872Z" fill="white"/>
</mask>
<g mask="url(#mask0_113_506)">
<path d="M1006.86 48.3948L988.638 33.3589C986.498 31.5974 983.132 31.6801 981.112 33.5464C979.089 35.4128 979.184 38.3571 981.323 40.1249L995.672 51.9654L982.117 64.499C980.101 66.3654 980.195 69.3128 982.335 71.0743C983.361 71.9264 984.675 72.3461 985.985 72.3461C987.401 72.3461 988.813 71.8564 989.861 70.8898L1007.07 54.97C1008.04 54.0766 1008.56 52.8779 1008.52 51.6442C1008.48 50.4138 1007.88 49.2437 1006.86 48.3948Z" fill="#21642D"/>
</g>
<path d="M267.029 50.2772L266.035 50.2899C261.243 50.3599 256.494 50.5634 251.916 50.9004C250.158 51.0276 248.852 52.3757 248.997 53.9146C249.139 55.3708 250.537 56.4709 252.178 56.4709C252.265 56.4709 252.36 56.4677 252.451 56.4614C256.883 56.137 261.494 55.9367 266.141 55.8731L267.113 55.8604C268.878 55.8382 270.286 54.5759 270.268 53.0338C270.246 51.4918 268.747 50.2645 267.029 50.2772Z" fill="#21642D"/>
<path d="M297.135 51.3996C291.84 50.9863 286.931 50.697 282.12 50.5062C280.337 50.4521 278.863 51.6317 278.787 53.1674C278.707 54.7095 280.071 56.0131 281.836 56.083C286.549 56.2675 291.371 56.5568 296.564 56.9574C296.665 56.967 296.76 56.9701 296.855 56.9701C298.492 56.9701 299.886 55.8796 300.035 54.4297C300.188 52.8908 298.889 51.5363 297.135 51.3996Z" fill="#21642D"/>
<path d="M326.899 54.4677C321.244 53.7873 316.528 53.2468 312.055 52.7794C310.308 52.595 308.714 53.6855 308.503 55.2181C308.292 56.7474 309.541 58.1368 311.295 58.3213C315.723 58.7855 320.403 59.3196 326.022 60C326.171 60.0191 326.317 60.0255 326.462 60.0255C328.034 60.0255 329.403 59.0144 329.625 57.6218C329.865 56.0892 328.646 54.6839 326.899 54.4677Z" fill="#21642D"/>
<mask id="mask1_113_506" style="mask-type:luminance" maskUnits="userSpaceOnUse" x="191" y="58" width="22" height="14">
<path d="M191.5 58.8428H212.57V71.0521H191.5V58.8428Z" fill="white"/>
</mask>
<g mask="url(#mask1_113_506)">
<path d="M207.497 59.4627C202.679 61.0969 198.007 62.9729 193.607 65.0459C192.053 65.7772 191.471 67.4655 192.308 68.8263C192.886 69.7643 193.985 70.2953 195.124 70.2953C195.634 70.2953 196.151 70.1872 196.635 69.9582C200.801 67.9997 205.237 66.2191 209.812 64.6644C211.46 64.1079 212.275 62.4896 211.635 61.0524C210.994 59.6153 209.142 58.9031 207.497 59.4627Z" fill="#21642D"/>
</g>
<path d="M236.865 52.5345C231.763 53.2817 226.763 54.226 221.999 55.3388C220.296 55.7331 219.281 57.2624 219.735 58.7536C220.121 60 221.409 60.8267 222.818 60.8267C223.094 60.8267 223.375 60.7917 223.647 60.7313C228.218 59.6629 233.018 58.7568 237.92 58.0414C239.659 57.787 240.831 56.3467 240.54 54.8237C240.249 53.3071 238.597 52.2833 236.865 52.5345Z" fill="#21642D"/>
<path d="M520.417 59.7584C516.028 60.5756 511.381 61.5167 505.792 62.7186C504.078 63.0906 503.033 64.6008 503.452 66.0952C503.816 67.3702 505.119 68.2223 506.556 68.2223C506.807 68.2223 507.062 68.1969 507.32 68.1396C512.841 66.9505 517.426 66.0221 521.749 65.2176C523.474 64.8965 524.573 63.4149 524.205 61.9046C523.834 60.3975 522.142 59.4373 520.417 59.7584Z" fill="#21642D"/>
<path d="M550.312 55.8222C545.483 56.1275 540.559 56.6235 535.246 57.3452C533.503 57.5805 532.31 59.0081 532.579 60.5311C532.826 61.9078 534.18 62.8935 535.734 62.8935C535.894 62.8935 536.062 62.8839 536.225 62.8617C541.364 62.1686 546.12 61.6853 550.771 61.3896C552.532 61.2815 553.853 59.9429 553.729 58.404C553.598 56.8683 552.084 55.7078 550.312 55.8222Z" fill="#21642D"/>
<path d="M491.312 65.9171C488.317 66.5879 485.322 67.2525 482.334 67.8979C480.533 68.2922 478.717 68.6769 476.901 69.0521C475.184 69.4082 474.117 70.9089 474.525 72.4096C474.871 73.691 476.184 74.559 477.633 74.559C477.873 74.559 478.124 74.5336 478.368 74.4827C480.213 74.1011 482.047 73.7132 483.874 73.319C486.876 72.6672 489.878 71.9995 492.891 71.3286C494.602 70.9471 495.631 69.4241 495.198 67.9297C494.762 66.4417 493.029 65.5355 491.312 65.9171Z" fill="#21642D"/>
<path d="M577.103 56.4073C573.362 55.9653 569.479 55.6823 565.556 55.5551C563.788 55.4947 562.31 56.703 562.248 58.245C562.183 59.7871 563.558 61.0811 565.323 61.1352C569.042 61.256 572.714 61.5231 576.248 61.9428C576.39 61.9555 576.535 61.9682 576.677 61.9682C578.253 61.9682 579.625 60.9444 579.84 59.5454C580.076 58.0193 578.85 56.6139 577.103 56.4073Z" fill="#21642D"/>
<path d="M433.367 74.8421C428.349 75.001 423.454 74.9247 418.833 74.6068C417.075 74.4828 415.539 75.6369 415.401 77.1727C415.266 78.7115 416.58 80.0533 418.338 80.1709C421.555 80.3935 424.906 80.5016 428.298 80.5016C430.037 80.5016 431.82 80.473 433.6 80.4189C435.365 80.3617 436.74 79.0676 436.675 77.5256C436.613 75.9867 435.092 74.7689 433.367 74.8421Z" fill="#21642D"/>
<path d="M404.553 72.7596C399.8 71.8248 395.19 70.5625 390.852 69.0141C389.222 68.4323 387.351 69.1127 386.681 70.5403C386.016 71.9647 386.798 73.599 388.428 74.1776C393.097 75.8469 398.05 77.2045 403.152 78.2061C403.388 78.2506 403.625 78.2729 403.854 78.2729C405.317 78.2729 406.638 77.3921 406.969 76.0949C407.359 74.591 406.274 73.0966 404.553 72.7596Z" fill="#21642D"/>
<path d="M462.458 71.7612C457.316 72.6165 452.57 73.281 447.942 73.7866C446.188 73.9742 444.947 75.37 445.165 76.9025C445.369 78.311 446.741 79.3475 448.331 79.3475C448.466 79.3475 448.597 79.3412 448.731 79.3253C453.498 78.807 458.378 78.1266 463.655 77.2459C465.387 76.9565 466.526 75.494 466.195 73.9837C465.864 72.4671 464.194 71.4719 462.458 71.7612Z" fill="#21642D"/>
<path d="M643.305 68.2064C638.913 67.0077 634.134 65.8854 628.687 64.7853C626.973 64.4355 625.252 65.3703 624.851 66.871C624.455 68.3749 625.528 69.8725 627.246 70.2222C632.533 71.2937 637.159 72.3748 641.398 73.5353C641.711 73.6243 642.039 73.6625 642.351 73.6625C643.709 73.6625 644.975 72.8994 645.397 71.7039C645.925 70.2318 644.99 68.6706 643.305 68.2064Z" fill="#21642D"/>
<path d="M725.264 98.593C720.897 97.6932 716.385 96.4563 711.468 94.7998C709.816 94.2497 707.975 94.9651 707.342 96.4055C706.708 97.8426 707.531 99.4578 709.176 100.008C714.369 101.753 719.147 103.07 723.797 104.027C724.049 104.078 724.292 104.103 724.532 104.103C725.981 104.103 727.298 103.232 727.64 101.947C728.044 100.45 726.982 98.9459 725.264 98.593Z" fill="#21642D"/>
<path d="M781.277 93.1212C777.008 94.9335 772.503 96.4374 767.881 97.5948C766.182 98.0208 765.206 99.5692 765.69 101.048C766.094 102.275 767.372 103.073 768.762 103.073C769.053 103.073 769.348 103.038 769.642 102.965C774.613 101.715 779.464 100.097 784.064 98.1448C785.654 97.4739 786.317 95.8047 785.545 94.4152C784.777 93.0322 782.863 92.4535 781.277 93.1212Z" fill="#21642D"/>
<mask id="mask2_113_506" style="mask-type:luminance" maskUnits="userSpaceOnUse" x="735" y="100" width="23" height="7">
<path d="M735.199 100.008H757.393V106.087H735.199V100.008Z" fill="white"/>
</mask>
<g mask="url(#mask2_113_506)">
<path d="M753.798 100.033C750.636 100.345 747.426 100.504 744.256 100.504C744.249 100.504 744.238 100.504 744.231 100.504C742.648 100.504 741.039 100.463 739.453 100.383C737.677 100.288 736.181 101.471 736.083 103.013C735.978 104.548 737.328 105.868 739.089 105.957C740.796 106.043 742.524 106.087 744.231 106.087C744.238 106.087 744.249 106.087 744.256 106.087C747.663 106.087 751.116 105.915 754.515 105.582C756.265 105.41 757.524 104.03 757.332 102.494C757.135 100.965 755.556 99.8649 753.798 100.033Z" fill="#21642D"/>
</g>
<path d="M697.996 89.7093C695.322 88.6156 692.654 87.4932 689.987 86.3676C688.182 85.6109 686.373 84.8447 684.561 84.0943C682.967 83.433 681.064 84.0243 680.307 85.417C679.546 86.8096 680.223 88.4725 681.817 89.1338C683.619 89.8842 685.416 90.6441 687.214 91.3976C689.9 92.5295 692.585 93.6583 695.285 94.7647C695.722 94.9428 696.184 95.0286 696.639 95.0286C697.84 95.0286 698.99 94.4341 699.532 93.4198C700.282 92.024 699.59 90.3643 697.996 89.7093Z" fill="#21642D"/>
<path d="M671.093 78.5939C669.761 78.028 668.48 77.4715 667.221 76.9278C663.993 75.5289 660.947 74.203 657.577 72.8962C655.969 72.2699 654.08 72.9058 653.363 74.3143C652.643 75.7228 653.374 77.3698 654.983 77.9993C658.229 79.2552 661.216 80.5525 664.382 81.9292C665.656 82.4761 666.952 83.0389 668.291 83.6112C668.742 83.8019 669.222 83.8942 669.692 83.8942C670.875 83.8942 672.01 83.3155 672.563 82.3267C673.335 80.9404 672.68 79.2711 671.093 78.5939Z" fill="#21642D"/>
<path d="M865.132 62.3593C860.823 63.7583 856.383 65.2972 851.169 67.1922C849.542 67.7867 848.767 69.4178 849.444 70.8422C849.957 71.9137 851.147 72.5624 852.399 72.5624C852.806 72.5624 853.221 72.4924 853.621 72.3462C858.763 70.4798 863.126 68.9663 867.362 67.5896C869.015 67.0554 869.859 65.4466 869.24 64.0031C868.625 62.5564 866.784 61.822 865.132 62.3593Z" fill="#21642D"/>
<path d="M953.801 48.6174C953.787 48.6174 953.765 48.6174 953.747 48.6174C948.619 48.6906 943.561 48.8527 938.725 49.1007C936.963 49.1929 935.62 50.5124 935.722 52.0481C935.824 53.5361 937.229 54.6776 938.91 54.6776C938.972 54.6776 939.034 54.6776 939.096 54.6712C943.848 54.4296 948.812 54.2706 953.852 54.2007C955.617 54.1752 957.022 52.9066 956.996 51.3645C956.967 49.8384 955.541 48.6174 953.801 48.6174Z" fill="#21642D"/>
<path d="M837.424 72.3081L837.318 72.3463C832.929 73.9996 828.392 75.7102 823.755 77.4017C822.125 77.9962 821.357 79.6305 822.038 81.0518C822.547 82.1233 823.734 82.7719 824.985 82.7719C825.397 82.7719 825.811 82.7019 826.212 82.5525C830.888 80.8483 835.444 79.1345 839.847 77.4748L839.953 77.4367C841.576 76.8262 842.322 75.1824 841.623 73.7675C840.924 72.3494 839.043 71.6976 837.424 72.3081Z" fill="#21642D"/>
<path d="M983.958 51.8986C984.035 50.3629 982.67 49.0562 980.909 48.9894C976.778 48.8272 972.692 48.7159 968.769 48.646C968.747 48.646 968.729 48.646 968.707 48.646C966.967 48.646 965.544 49.8606 965.512 51.3836C965.479 52.9256 966.88 54.2006 968.645 54.2292C972.517 54.296 976.549 54.4073 980.625 54.5663C980.676 54.5663 980.719 54.5663 980.77 54.5663C982.466 54.5663 983.882 53.3962 983.958 51.8986Z" fill="#21642D"/>
<path d="M923.713 50.1945C918.637 50.681 913.611 51.2883 908.775 52.01C907.039 52.2644 905.864 53.7047 906.158 55.2245C906.428 56.5885 907.778 57.5519 909.306 57.5519C909.485 57.5519 909.663 57.536 909.845 57.5106C914.554 56.8143 919.456 56.2165 924.412 55.746C926.166 55.5743 927.432 54.1975 927.243 52.665C927.047 51.1325 925.471 50.0228 923.713 50.1945Z" fill="#21642D"/>
<path d="M893.975 54.6331C889.073 55.6506 884.306 56.7857 879.404 58.1083C877.719 58.5567 876.769 60.121 877.29 61.5963C877.716 62.7949 878.978 63.5676 880.343 63.5676C880.656 63.5676 880.973 63.5262 881.285 63.4404C886.053 62.1559 890.685 61.0526 895.452 60.0637C897.17 59.7076 898.233 58.2005 897.825 56.6998C897.417 55.2023 895.7 54.277 893.975 54.6331Z" fill="#21642D"/>
</g>
</svg>
