<svg width="40" height="36" viewBox="0 0 40 36" fill="none" xmlns="http://www.w3.org/2000/svg">
<rect y="0.787109" width="40" height="35" rx="4" fill="#2D4F2B"/>
<g clip-path="url(#clip0_69_98)">
<path fill-rule="evenodd" clip-rule="evenodd" d="M25.7737 29.2963C24.1279 29.2357 19.4639 28.5911 14.5794 23.7077C9.69595 18.8231 9.05252 14.1603 8.9908 12.5134C8.89938 10.0037 10.8217 7.56597 13.0422 6.61397C13.3096 6.4985 13.6025 6.45454 13.892 6.4864C14.1815 6.51826 14.4578 6.62484 14.6937 6.79568C16.5222 8.12825 17.7839 10.1443 18.8674 11.7294C19.1058 12.0777 19.2077 12.5015 19.1537 12.92C19.0998 13.3386 18.8937 13.7227 18.5748 13.9991L16.3451 15.6551C16.2374 15.7329 16.1615 15.8471 16.1317 15.9766C16.1018 16.1061 16.12 16.242 16.1828 16.3591C16.6879 17.2768 17.5862 18.6437 18.6148 19.6723C19.6434 20.7008 21.0754 21.6585 22.0571 22.2208C22.1802 22.2899 22.3251 22.3092 22.462 22.2748C22.5988 22.2404 22.7173 22.1548 22.7931 22.0357L24.2445 19.8265C24.5114 19.4721 24.905 19.2346 25.343 19.1639C25.781 19.0932 26.2294 19.1947 26.5942 19.4471C28.2022 20.5603 30.0788 21.8003 31.4525 23.5591C31.6372 23.7967 31.7547 24.0796 31.7927 24.3781C31.8307 24.6767 31.7878 24.98 31.6685 25.2563C30.7119 27.4883 28.2914 29.3888 25.7737 29.2963Z" fill="#FFD47B"/>
</g>
<defs>
<clipPath id="clip0_69_98">
<rect width="24" height="24" fill="white" transform="translate(8 6.28711)"/>
</clipPath>
</defs>
</svg>
