<svg width="36" height="37" viewBox="0 0 36 37" fill="none" xmlns="http://www.w3.org/2000/svg">
<g clip-path="url(#clip0_177_160)">
<path d="M28 27.7871C20 27.7871 20 33.7871 20 33.7871V22.7871H16V33.7871C16 33.7871 16 27.7871 8 27.7871C4 27.7871 1 25.7871 1 25.7871C1 25.7871 1 34.7871 10 34.7871H16C16 34.7871 16 36.7871 18 36.7871C20 36.7871 20 34.7871 20 34.7871H26C35 34.7871 35 25.7871 35 25.7871C35 25.7871 32 27.7871 28 27.7871Z" fill="#3E721D"/>
<path d="M21.125 28.449C20.797 28.449 20.474 28.352 20.198 28.166L17.875 26.591L15.553 28.166C15.3557 28.298 15.1326 28.3865 14.8984 28.4255C14.6642 28.4644 14.4244 28.453 14.195 28.392C13.9659 28.331 13.7527 28.2214 13.5697 28.0706C13.3868 27.9198 13.2386 27.7313 13.135 27.518L11.91 24.991L9.11303 25.195L8.99403 25.199C8.76687 25.1989 8.54216 25.152 8.33388 25.0613C8.1256 24.9707 7.93821 24.8381 7.78336 24.6719C7.6285 24.5057 7.5095 24.3094 7.43375 24.0952C7.358 23.8811 7.32712 23.6536 7.34303 23.427L7.54403 20.627L5.02103 19.402C4.80769 19.2981 4.61916 19.1495 4.46817 18.9664C4.31718 18.7833 4.20725 18.57 4.14582 18.3407C4.08439 18.1115 4.07288 17.8718 4.11208 17.6377C4.15128 17.4036 4.24027 17.1807 4.37303 16.984L5.94603 14.661L4.37303 12.339C4.23961 12.1426 4.15017 11.9196 4.11082 11.6854C4.07147 11.4512 4.08314 11.2113 4.14503 10.982C4.20683 10.753 4.317 10.5399 4.46811 10.357C4.61922 10.1742 4.80776 10.0259 5.02103 9.92202L7.54403 8.69702L7.34303 5.90002C7.32593 5.66315 7.35998 5.42536 7.44287 5.20281C7.52576 4.98025 7.65555 4.77813 7.82343 4.61015C7.99132 4.44217 8.19337 4.31227 8.41588 4.22925C8.63838 4.14624 8.87615 4.11205 9.11303 4.12902L11.91 4.33002L13.135 1.80702C13.2392 1.59392 13.3879 1.40562 13.571 1.25482C13.7541 1.10403 13.9675 0.994226 14.1966 0.932821C14.4257 0.871416 14.6653 0.859832 14.8993 0.898852C15.1333 0.937871 15.3562 1.02659 15.553 1.15902L17.875 2.73202L20.198 1.15902C20.394 1.02528 20.6166 0.935633 20.8505 0.89627C21.0844 0.856908 21.3241 0.868763 21.553 0.931019C22.018 1.05602 22.407 1.37502 22.615 1.80702L23.84 4.33002L26.64 4.12902C26.678 4.12635 26.7167 4.12535 26.756 4.12602C26.9835 4.12584 27.2086 4.17256 27.4172 4.26326C27.6258 4.35395 27.8135 4.48668 27.9685 4.65315C28.1235 4.81961 28.2425 5.01625 28.3182 5.23078C28.3938 5.44532 28.4244 5.67314 28.408 5.90002L28.204 8.69702L30.731 9.92202C31.164 10.131 31.482 10.52 31.605 10.982C31.729 11.447 31.648 11.942 31.378 12.339L29.803 14.661L31.378 16.984C31.647 17.382 31.729 17.876 31.605 18.34C31.5443 18.5695 31.4348 18.7831 31.284 18.9664C31.1331 19.1497 30.9445 19.2983 30.731 19.402L28.204 20.627L28.408 23.427C28.442 23.905 28.265 24.373 27.928 24.715C27.7601 24.8824 27.5582 25.0118 27.336 25.0946C27.1139 25.1774 26.8765 25.2116 26.64 25.195L23.84 24.991L22.615 27.518C22.5113 27.7315 22.3627 27.9201 22.1794 28.071C21.9962 28.2218 21.7825 28.3313 21.553 28.392C21.4136 28.4303 21.2696 28.4494 21.125 28.449Z" fill="#FFAC33"/>
<path d="M18 21.7871C21.866 21.7871 25 18.6531 25 14.7871C25 10.9211 21.866 7.78711 18 7.78711C14.134 7.78711 11 10.9211 11 14.7871C11 18.6531 14.134 21.7871 18 21.7871Z" fill="#732700"/>
</g>
<defs>
<clipPath id="clip0_177_160">
<rect width="36" height="36" fill="white" transform="translate(0 0.787109)"/>
</clipPath>
</defs>
</svg>
